<?xml version="1.0" standalone="no"?>
<svg xmlns="http://www.w3.org/2000/svg" viewBox="0 0 163.922 36" width="163.922" height="36"><g fill="#000000" color="#000000" transform="translate(0 6.000000000000002) scale(0.5106383)"><svg width="46.0" height="47.0" x="0.0" y="0.0" viewBox="0 0 46 47"><path fill="currentColor" fill-rule="evenodd" d="M29.368 34c-.357-2.817-1.256-5.625-2.664-8.333C31.446 17.977 37.79 10.85 40.967 7.88c.424-.391.43-1.048.026-1.452a1.09 1.09 0 0 0-1.5-.03c-3.121 2.922-9.208 9.727-13.978 17.191a32.399 32.399 0 0 0-3.317-4.38A33.66 33.66 0 0 0 21 17.944C25.495 9.464 34.858 2.943 43.85 2c.536 7.76.436 28.055-14.482 32M45.735.954c1.633 19.467-4.343 32.71-16.014 35.665.025.822.004 1.645-.062 2.464-.05.567-.53.977-1.122.948-.575-.047-1-.553-.954-1.12.333-4.033-.589-8.19-2.623-12.13a1.005 1.005 0 0 1-.247-.483 30.13 30.13 0 0 0-3.759-5.38 31.99 31.99 0 0 0-1.392-1.493 1.041 1.041 0 0 1-.404-.408c-4.85-4.747-11.072-7.914-16.908-8.55-.828 11.951 1.479 22.016 6.387 27.727 2.99 3.476 6.928 5.405 11.703 5.73a1.04 1.04 0 0 1 .966 1.107 1.026 1.026 0 0 1-1.03.969c-.023 0-.044 0-.072-.004-5.349-.37-9.77-2.54-13.139-6.452C1.572 33.16-.84 22.404.261 9.257c.044-.56.5-1.026 1.095-.948 6.283.368 13.073 3.535 18.444 8.463C24.812 7.532 35.028.567 44.637.004c.553-.053 1.051.392 1.098.95zM5.766 14.286C11 19.306 23.355 34.181 25.975 45.738a1.046 1.046 0 0 1-.789 1.24 1.224 1.224 0 0 1-.23.022c-.475 0-.906-.327-1.013-.807C21.427 35.089 9.413 20.652 4.32 15.776a1.026 1.026 0 0 1-.027-1.46c.4-.41 1.064-.421 1.474-.03z"></path></svg></g><path fill="#002B2B" fill-rule="nonzero" d="M9.26 0Q10.80 0 12 0.71Q13.20 1.42 13.87 2.65Q14.54 3.89 14.54 5.42L14.54 5.42L14.54 5.74Q14.54 7.27 13.87 8.52Q13.20 9.77 12 10.48Q10.80 11.18 9.26 11.18L9.26 11.18L5.30 11.18L5.30 16.51L0 16.51L0 0L9.26 0ZM5.30 3.91L5.30 7.32L7.49 7.32Q8.33 7.32 8.75 6.89Q9.17 6.46 9.17 5.71L9.17 5.71L9.17 5.52Q9.17 4.75 8.75 4.33Q8.33 3.91 7.49 3.91L7.49 3.91L5.30 3.91ZM30.10 16.51L26.18 16.51L25.87 14.59Q25.13 15.62 23.92 16.21Q22.70 16.80 21.36 16.80L21.36 16.80Q19.15 16.80 18.05 15.58Q16.94 14.35 16.94 12.05L16.94 12.05L16.94 3.84L21.72 3.84L21.72 11.47Q21.72 12.29 22.14 12.78Q22.56 13.27 23.33 13.27L23.33 13.27Q24.22 13.27 24.77 12.70Q25.32 12.12 25.32 11.28L25.32 11.28L25.32 3.84L30.10 3.84L30.10 16.51ZM40.70 3.53Q41.26 3.53 41.69 3.66Q42.12 3.79 42.12 3.82L42.12 3.82L42.12 7.82L40.58 7.82Q39.10 7.82 38.44 8.59Q37.78 9.36 37.78 10.87L37.78 10.87L37.78 16.51L33 16.51L33 3.84L36.91 3.84L37.22 5.76Q37.66 4.66 38.59 4.09Q39.53 3.53 40.70 3.53L40.70 3.53ZM50.59 3.55Q54.07 3.55 55.91 5.18Q57.74 6.82 57.74 10.18L57.74 10.18L57.74 10.99L48.24 10.99Q48.24 12.36 48.85 13.06Q49.46 13.75 50.78 13.75L50.78 13.75Q51.98 13.75 52.55 13.25Q53.11 12.74 53.11 11.90L53.11 11.90L57.74 11.90Q57.74 14.21 55.99 15.50Q54.24 16.80 50.88 16.80L50.88 16.80Q47.35 16.80 45.41 15.16Q43.46 13.51 43.46 10.18L43.46 10.18Q43.46 6.91 45.36 5.23Q47.26 3.55 50.59 3.55L50.59 3.55ZM50.78 6.60Q48.53 6.60 48.26 8.74L48.26 8.74L52.92 8.74Q52.92 7.75 52.36 7.18Q51.79 6.60 50.78 6.60L50.78 6.60ZM68.38 16.51L68.38 0L81.72 0L81.72 3.96L73.68 3.96L73.68 6.79L80.59 6.79L80.59 10.58L73.68 10.58L73.68 16.51L68.38 16.51ZM89.69 3.55Q92.59 3.55 94.42 4.52Q96.24 5.50 96.24 7.68L96.24 7.68L96.24 12.62Q96.24 13.03 96.43 13.30Q96.62 13.56 97.01 13.56L97.01 13.56L97.87 13.56L97.87 16.32Q97.80 16.37 97.50 16.48Q97.20 16.58 96.65 16.69Q96.10 16.80 95.38 16.80L95.38 16.80Q93.98 16.80 93.08 16.38Q92.18 15.96 91.85 15.22L91.85 15.22Q90.94 15.94 89.81 16.37Q88.68 16.80 87.17 16.80L87.17 16.80Q82.70 16.80 82.70 13.25L82.70 13.25Q82.70 11.40 83.70 10.43Q84.70 9.46 86.57 9.10Q88.44 8.74 91.46 8.74L91.46 8.74L91.46 8.11Q91.46 7.37 90.95 6.98Q90.43 6.60 89.62 6.60L89.62 6.60Q88.87 6.60 88.33 6.86Q87.79 7.13 87.79 7.70L87.79 7.70L87.79 7.80L83.09 7.80Q83.06 7.68 83.06 7.46L83.06 7.46Q83.06 5.66 84.78 4.61Q86.50 3.55 89.69 3.55L89.69 3.55ZM91.46 10.99Q89.42 10.99 88.45 11.44Q87.48 11.88 87.48 12.62L87.48 12.62Q87.48 13.82 89.11 13.82L89.11 13.82Q90.05 13.82 90.76 13.32Q91.46 12.82 91.46 12.07L91.46 12.07L91.46 10.99ZM107.14 3.53Q107.69 3.53 108.12 3.66Q108.55 3.79 108.55 3.82L108.55 3.82L108.55 7.82L107.02 7.82Q105.53 7.82 104.87 8.59Q104.21 9.36 104.21 10.87L104.21 10.87L104.21 16.51L99.43 16.51L99.43 3.84L103.34 3.84L103.66 5.76Q104.09 4.66 105.02 4.09Q105.96 3.53 107.14 3.53L107.14 3.53ZM128.11 3.55Q130.27 3.55 131.35 4.79Q132.43 6.02 132.43 8.30L132.43 8.30L132.43 16.51L127.66 16.51L127.66 8.88Q127.66 8.06 127.26 7.57Q126.86 7.08 126.14 7.08L126.14 7.08Q125.30 7.08 124.78 7.66Q124.25 8.23 124.25 9.07L124.25 9.07L124.25 16.51L119.47 16.51L119.47 8.88Q119.47 8.06 119.08 7.57Q118.68 7.08 117.96 7.08L117.96 7.08Q117.12 7.08 116.59 7.66Q116.06 8.23 116.06 9.07L116.06 9.07L116.06 16.51L111.29 16.51L111.29 3.84L115.20 3.84L115.51 5.74Q116.23 4.73 117.42 4.14Q118.61 3.55 119.93 3.55L119.93 3.55Q122.78 3.55 123.77 5.74L123.77 5.74Q124.51 4.73 125.68 4.14Q126.84 3.55 128.11 3.55L128.11 3.55Z" transform="translate(31.49, 9.744)"></path></svg>